<svg xmlns="http://www.w3.org/2000/svg" width="550" height="453" viewBox="0 0 550 453">
<g>
<path d="M 273.00 431.98 C265.58,432.54 257.25,432.91 254.50,432.80 C238.77,432.19 234.40,431.86 223.56,430.43 C216.99,429.56 206.42,427.50 200.06,425.85 C193.70,424.19 186.84,422.43 184.82,421.93 C173.38,419.10 145.66,404.37 130.58,393.11 C109.48,377.35 83.97,348.60 74.58,330.00 C72.50,325.88 69.98,321.15 68.98,319.50 C66.19,314.91 58.39,295.24 56.68,288.50 C48.13,254.80 47.65,222.99 55.15,188.12 C60.12,165.00 77.76,130.15 93.71,111.92 C102.47,101.91 106.64,97.43 109.00,95.53 C110.38,94.42 114.67,90.58 118.55,87.00 C125.96,80.17 131.72,76.09 148.74,65.60 C157.10,60.45 172.67,53.24 182.00,50.20 C206.62,42.17 224.12,39.07 249.21,38.29 C279.39,37.34 302.29,40.96 333.71,51.62 C348.21,56.54 370.96,69.55 386.35,81.71 C399.51,92.12 417.20,110.59 425.03,122.12 C428.53,127.28 432.73,133.47 434.35,135.87 C438.70,142.31 447.74,162.84 452.03,176.00 C463.82,212.23 464.96,247.40 455.51,283.46 C450.79,301.46 437.39,332.14 431.03,339.50 C430.08,340.60 426.70,345.33 423.51,350.00 C420.32,354.67 415.33,360.98 412.42,364.00 C409.50,367.02 404.73,372.00 401.81,375.06 C387.32,390.25 357.79,409.73 336.25,418.31 C318.55,425.36 295.83,430.27 273.00,431.98 ZM 246.00 412.35 C253.62,412.82 270.02,412.08 279.00,410.87 C285.68,409.96 298.71,406.94 315.00,402.50 C327.15,399.20 352.30,385.26 367.80,373.25 C376.98,366.13 395.55,348.10 399.18,342.78 C416.25,317.72 417.79,315.03 424.35,299.00 C440.16,260.35 441.61,221.74 428.65,184.06 C420.02,158.95 415.58,149.96 404.06,134.30 C401.55,130.88 398.15,126.23 396.50,123.96 C394.85,121.69 388.34,114.86 382.04,108.77 C371.60,98.70 367.10,95.21 351.61,85.19 C343.61,80.02 329.97,73.35 320.32,69.89 C276.35,54.13 236.27,53.95 192.95,69.32 C177.08,74.95 168.89,79.09 153.82,89.08 C139.12,98.83 125.62,111.06 114.19,125.00 C106.08,134.90 97.00,148.28 97.00,150.34 C97.00,150.86 95.75,153.35 94.21,155.89 C92.68,158.43 89.56,164.77 87.29,170.00 C75.63,196.80 71.86,224.70 75.47,257.50 C77.53,276.19 81.46,288.90 91.54,309.50 C97.85,322.40 105.42,334.74 110.56,340.50 C112.04,342.15 115.05,345.87 117.25,348.76 C121.83,354.77 143.50,374.27 150.42,378.61 C152.96,380.20 157.87,383.35 161.33,385.61 C168.13,390.05 186.34,399.10 192.00,400.86 C193.93,401.45 198.50,402.88 202.17,404.03 C216.42,408.48 232.45,411.52 246.00,412.35 ZM 176.00 191.03 L 176.00 271.00 L 168.00 271.00 L 168.00 248.50 C168.00,226.48 167.96,226.00 165.95,226.00 C162.67,226.00 158.74,223.51 155.32,219.25 C151.07,213.96 147.28,212.37 136.06,211.20 C125.84,210.13 124.00,209.02 124.00,203.93 C124.00,198.96 125.65,198.54 147.40,198.00 L 167.50 197.50 L 167.81 194.25 C168.12,191.12 167.99,191.00 164.49,191.00 C161.82,191.00 160.09,190.24 158.00,188.15 C150.56,180.71 155.00,168.00 165.04,168.00 C168.27,168.00 169.09,167.51 170.84,164.55 C173.33,160.33 180.90,156.28 189.99,154.32 C203.12,151.47 213.71,149.79 222.50,149.15 L 231.50 148.50 L 231.79 144.50 C232.04,141.14 231.72,140.34 229.79,139.50 C227.85,138.65 227.45,137.63 227.20,132.84 C226.79,124.89 228.26,124.00 241.72,124.00 C250.67,124.00 252.26,124.26 254.00,126.00 C257.91,129.91 256.01,140.00 251.37,140.00 C250.24,140.00 249.96,141.02 250.19,144.25 L 250.50 148.50 L 260.00 149.11 C281.63,150.50 302.98,155.96 310.88,162.14 C312.76,163.60 315.00,164.00 321.38,164.01 C329.18,164.02 329.68,164.16 334.00,167.60 C342.44,174.31 342.57,174.34 374.50,174.95 C400.81,175.45 403.76,175.68 406.31,177.40 C409.32,179.45 412.57,184.96 413.15,189.01 L 413.50 191.50 L 364.26 191.58 C337.17,191.62 314.80,191.86 314.55,192.12 C314.29,192.38 314.34,193.58 314.66,194.79 L 315.23 197.00 L 414.25 197.00 L 413.62 200.17 C412.80,204.27 408.74,209.54 404.70,211.75 C401.96,213.25 397.57,213.58 374.00,214.08 C344.51,214.70 340.55,215.30 335.99,219.84 C330.86,224.96 329.85,225.41 322.21,225.96 L 314.63 226.50 L 314.89 242.53 C315.03,251.34 314.83,261.35 314.45,264.78 L 313.74 271.00 L 307.00 271.00 L 307.00 191.03 L 281.36 190.77 C258.20,190.53 255.61,190.33 254.61,188.75 C253.81,187.47 253.81,186.53 254.61,185.25 C255.61,183.66 258.62,183.45 287.00,183.00 C314.35,182.56 318.41,182.30 319.30,180.89 C319.86,180.00 320.04,178.54 319.69,177.64 C319.12,176.14 312.31,176.00 240.47,176.00 L 161.87 176.00 L 162.19 179.25 L 162.50 182.50 L 198.39 183.00 C231.16,183.46 234.38,183.65 235.39,185.25 C236.19,186.53 236.19,187.47 235.39,188.75 C234.38,190.34 231.64,190.52 205.14,190.77 ZM 294.30 332.38 C288.30,333.73 280.60,333.99 247.80,333.93 C209.98,333.87 208.22,333.78 201.00,331.60 C196.88,330.36 191.48,328.30 189.00,327.03 C177.60,321.17 165.04,308.63 161.63,299.70 C160.24,296.07 159.22,294.87 157.17,294.44 C148.26,292.57 140.35,288.46 134.34,282.57 C126.99,275.36 125.57,271.13 128.70,265.78 C131.26,261.39 134.52,259.83 140.14,260.30 C146.82,260.85 153.37,265.08 158.32,272.03 L 162.50 277.89 L 185.28 277.95 C209.86,278.00 213.57,277.39 216.17,272.83 C217.16,271.09 217.63,262.87 218.00,240.50 L 218.50 210.50 L 221.30 210.18 C224.47,209.81 226.48,211.82 250.42,239.25 C257.98,247.91 264.58,255.00 265.10,255.00 C265.66,255.00 265.93,245.14 265.77,230.25 L 265.50 205.50 L 260.24 205.20 C253.71,204.82 253.02,206.05 255.44,213.73 C257.27,219.52 256.95,224.97 254.67,226.86 C253.68,227.68 253.37,227.16 253.30,224.53 C253.25,222.66 252.23,218.33 251.04,214.89 C248.40,207.25 248.96,201.97 252.72,199.00 C255.10,197.13 256.77,197.00 277.63,197.00 L 300.00 197.00 L 300.00 199.35 C300.00,204.10 296.81,205.47 284.90,205.84 L 274.00 206.18 L 273.88 235.34 C273.82,251.38 273.48,265.80 273.13,267.39 C272.78,268.98 271.68,270.78 270.68,271.39 C269.12,272.35 267.76,271.32 260.90,264.00 C256.51,259.33 250.53,252.57 247.61,249.00 C244.68,245.43 238.73,238.76 234.37,234.19 L 226.45 225.88 L 226.48 246.69 C226.49,258.14 226.14,269.17 225.71,271.22 C224.71,275.92 220.92,280.46 215.62,283.29 C211.72,285.38 210.29,285.50 188.83,285.50 C176.37,285.50 165.85,285.82 165.46,286.21 C165.07,286.60 165.52,288.85 166.45,291.21 C171.35,303.57 184.30,316.88 195.65,321.21 C206.69,325.42 213.06,325.98 249.66,325.99 C287.43,326.00 294.62,325.25 305.42,320.17 C316.10,315.14 328.18,302.30 332.21,291.70 C333.24,288.98 333.90,286.57 333.68,286.34 C333.45,286.12 310.95,285.87 283.67,285.79 C249.25,285.70 233.97,285.33 233.71,284.58 C233.50,283.98 233.62,282.38 233.96,281.00 L 234.59 278.50 L 285.74 278.00 L 336.90 277.50 L 339.98 272.84 C343.51,267.51 348.71,263.23 353.91,261.37 C364.03,257.75 371.00,261.65 371.00,270.92 C371.00,275.38 370.54,276.50 367.26,280.13 C361.85,286.12 354.70,290.59 346.37,293.17 L 339.08 295.43 L 335.85 301.79 C331.86,309.65 326.69,315.61 319.23,320.95 C311.42,326.53 302.90,330.44 294.30,332.38 ZM 154.42 402.31 C158.31,404.22 161.73,405.55 162.00,405.27 C162.27,404.99 161.64,404.26 160.59,403.63 C153.90,399.68 144.47,392.76 138.00,387.09 C133.88,383.46 129.37,379.60 128.00,378.50 C123.37,374.80 106.97,355.60 101.54,347.51 C93.93,336.17 83.52,316.29 79.89,306.14 C74.57,291.28 70.53,270.72 68.97,250.67 C66.87,223.47 70.80,191.12 79.20,166.58 C81.66,159.41 93.23,135.79 96.04,132.22 C97.12,130.85 98.00,129.22 98.00,128.59 C98.00,127.96 100.14,124.51 102.75,120.93 C111.73,108.61 122.87,96.48 134.17,86.74 C145.16,77.27 147.66,75.37 156.84,69.59 C159.23,68.08 160.96,66.63 160.69,66.36 C160.10,65.76 142.28,74.73 141.48,76.03 C141.17,76.54 138.57,78.51 135.71,80.41 C124.28,88.02 101.49,109.30 96.03,117.48 C95.19,118.74 91.20,124.43 87.16,130.13 C76.38,145.36 65.53,168.90 60.42,188.16 C56.44,203.16 55.86,207.98 55.32,230.61 C54.70,256.65 55.74,266.20 61.24,284.99 C67.02,304.76 77.89,327.55 88.21,341.55 C92.24,347.02 96.27,352.62 97.16,354.00 C98.05,355.38 103.65,361.45 109.60,367.50 C122.01,380.11 144.04,397.23 154.42,402.31 ZM 348.16 406.02 C347.06,409.31 369.26,395.33 385.71,382.36 C396.12,374.15 421.00,347.22 421.00,344.15 C421.00,343.65 421.66,342.70 422.47,342.02 C424.95,339.97 437.69,317.89 440.37,311.00 C446.56,295.12 448.00,290.91 450.45,281.50 C454.55,265.74 456.00,253.59 455.98,235.26 C455.96,211.57 453.63,197.87 445.44,173.17 C440.56,158.48 434.89,146.76 426.51,134.11 C423.48,129.53 421.00,125.55 421.00,125.28 C421.00,124.32 413.39,115.25 404.50,105.62 C396.56,97.02 385.58,87.42 373.76,78.74 C368.53,74.91 349.95,64.72 349.33,65.34 C349.04,65.62 353.24,68.77 358.66,72.33 C378.09,85.12 397.83,105.29 412.82,127.70 C421.94,141.31 433.21,167.69 437.37,185.15 C440.50,198.28 441.01,201.97 442.17,220.31 C444.33,254.31 440.50,282.38 430.18,308.00 C418.36,337.35 405.17,357.00 382.87,378.50 C372.14,388.84 360.69,397.96 353.00,402.27 C350.57,403.64 348.39,405.32 348.16,406.02 ZM 241.00 425.92 C250.82,427.17 258.33,427.08 271.00,425.55 C285.57,423.80 300.92,420.64 308.00,417.94 C311.02,416.79 314.90,415.42 316.61,414.91 C320.34,413.80 347.11,400.24 352.61,396.69 C362.20,390.48 379.33,375.51 389.27,364.65 C395.24,358.12 399.85,352.51 399.51,352.17 C399.17,351.83 396.99,353.57 394.67,356.03 C387.58,363.56 373.57,376.35 369.42,379.09 C346.05,394.52 337.09,399.68 328.00,402.91 C304.89,411.12 297.29,413.25 281.00,416.10 C269.95,418.04 239.85,417.78 227.77,415.64 C202.85,411.22 175.13,400.98 158.40,390.00 C157.15,389.17 153.57,386.92 150.46,385.00 C144.16,381.11 133.24,372.27 125.27,364.63 C122.40,361.87 119.76,359.90 119.42,360.25 C117.01,362.66 141.24,384.83 159.43,396.86 C171.59,404.90 198.10,416.93 211.50,420.47 C217.67,422.11 232.31,424.81 241.00,425.92 ZM 383.97 103.41 C390.80,110.34 393.71,112.53 392.83,110.07 C392.30,108.56 377.55,93.70 371.79,88.87 C360.09,79.05 352.90,74.10 340.29,67.17 C323.16,57.77 315.41,54.61 299.18,50.42 C266.43,41.97 245.54,41.87 213.50,49.98 C199.61,53.50 194.09,55.55 181.00,62.06 C159.34,72.83 147.71,80.95 130.25,97.51 C117.51,109.58 114.94,113.83 126.75,103.30 C131.01,99.49 137.30,94.26 140.71,91.66 C148.17,85.99 168.49,73.00 169.88,73.00 C170.43,73.00 175.07,71.04 180.19,68.64 C202.62,58.13 227.22,53.01 255.26,53.00 C273.65,53.00 285.05,54.29 300.83,58.15 C319.94,62.83 343.37,73.07 358.00,83.15 C363.07,86.64 369.31,90.92 371.86,92.66 C374.41,94.40 379.86,99.24 383.97,103.41 ZM 276.50 388.00 C273.19,391.46 272.72,391.57 270.91,389.40 C269.76,388.01 270.02,387.43 272.80,385.15 C276.67,381.96 276.81,380.69 273.48,379.17 C270.61,377.87 269.00,374.40 269.00,369.55 C269.00,364.84 271.68,361.99 276.76,361.31 C280.03,360.87 281.00,360.31 281.00,358.87 C281.00,357.21 280.16,357.00 273.62,357.00 C267.07,357.00 266.17,356.77 265.71,355.00 C265.22,353.13 265.68,353.00 272.59,353.00 C280.52,353.00 280.92,352.67 278.54,348.07 C276.95,345.01 275.19,344.00 271.42,344.00 C269.67,344.00 269.00,343.45 269.00,342.00 C269.00,340.35 269.66,340.00 272.75,340.02 C277.68,340.04 278.81,340.86 282.52,347.18 L 285.64 352.50 L 311.32 352.77 C325.44,352.91 337.00,352.64 337.00,352.17 C337.00,351.69 336.50,349.87 335.90,348.13 C335.00,345.56 335.10,344.50 336.42,342.48 C337.80,340.38 338.82,340.00 343.10,340.00 C347.38,340.00 348.09,340.27 347.79,341.75 C347.57,342.77 346.62,343.43 345.50,343.33 C341.90,343.00 339.76,344.91 340.47,347.83 C341.25,351.08 343.58,353.00 346.76,353.00 C349.89,353.00 349.42,356.37 346.24,356.82 C344.06,357.13 344.00,357.46 344.00,369.57 L 344.00 382.00 L 341.50 382.00 C339.13,382.00 339.00,381.71 339.00,376.39 C339.00,371.03 338.90,370.81 336.69,371.36 C335.42,371.68 332.71,371.48 330.68,370.92 C324.83,369.31 324.35,370.76 329.11,375.61 C332.53,379.10 333.15,380.25 332.17,381.23 C330.24,383.16 326.31,380.40 321.84,374.00 C317.36,367.57 317.17,364.52 321.24,364.46 C324.91,364.40 326.40,362.72 325.61,359.57 C325.00,357.17 324.57,357.00 318.98,357.00 C313.45,357.00 313.00,357.17 312.98,359.25 C312.96,362.98 311.71,363.87 305.98,364.19 C301.91,364.42 300.50,364.89 300.50,366.00 C300.50,367.12 301.91,367.57 306.00,367.79 C309.68,367.98 311.91,368.63 312.75,369.73 C314.64,372.23 314.31,378.41 312.17,380.35 C309.90,382.40 303.17,382.51 298.55,380.58 C294.38,378.84 291.17,374.43 292.84,372.76 C293.69,371.91 294.55,372.17 296.25,373.77 C301.92,379.09 310.52,379.72 309.82,374.76 C309.54,372.75 309.02,372.54 305.14,372.83 C301.49,373.11 300.31,372.71 297.89,370.39 C292.64,365.36 294.37,360.96 301.89,360.24 C305.32,359.91 307.00,359.29 307.00,358.37 C307.00,357.30 304.74,357.00 296.56,357.00 L 286.11 357.00 L 285.81 361.14 C285.52,365.07 285.32,365.30 282.00,365.63 C275.50,366.27 274.05,366.95 273.36,369.69 C272.83,371.81 273.24,372.81 275.40,374.67 C278.57,377.39 280.42,377.55 284.43,375.46 C287.91,373.64 290.00,374.19 290.00,376.90 C290.00,378.24 288.88,379.27 286.49,380.14 L 282.99 381.41 L 286.54 385.04 C289.46,388.03 289.85,388.88 288.72,389.82 C287.64,390.72 286.72,390.32 284.48,387.98 C280.92,384.26 280.08,384.27 276.50,388.00 ZM 226.94 384.57 C225.20,386.67 224.31,386.34 223.20,383.15 C222.33,380.64 221.59,380.23 216.94,379.68 C210.91,378.97 206.30,375.42 205.80,371.11 C205.55,368.97 204.91,368.44 202.25,368.19 C199.59,367.93 199.00,368.23 199.00,369.81 C199.00,370.88 198.36,372.29 197.58,372.93 C195.76,374.45 192.62,372.65 191.04,369.19 C189.26,365.28 191.21,364.00 198.90,364.00 C203.06,364.00 206.32,363.46 207.60,362.57 C208.73,361.78 211.64,360.99 214.07,360.82 C217.32,360.58 218.57,360.04 218.81,358.75 C219.12,357.14 217.79,357.00 202.10,357.00 L 185.06 357.00 L 184.78 369.25 C184.52,380.74 184.38,381.50 182.50,381.50 C180.72,381.50 180.47,380.73 180.20,374.69 L 179.91 367.88 L 176.24 368.19 C173.28,368.44 172.47,368.98 172.00,370.99 C171.16,374.57 168.56,374.60 166.04,371.05 C162.34,365.86 163.82,364.14 172.30,363.79 L 179.50 363.50 L 179.81 360.29 L 180.12 357.08 L 171.32 356.79 C163.87,356.54 162.47,356.23 162.19,354.75 C161.87,353.10 164.61,353.00 208.43,353.00 C254.33,353.00 255.00,353.03 255.00,355.00 C255.00,356.32 254.33,357.00 253.03,357.00 C251.19,357.00 251.04,357.83 250.78,369.25 C250.52,380.74 250.38,381.50 248.50,381.50 C246.72,381.50 246.47,380.73 246.20,374.69 L 245.91 367.88 L 242.24 368.19 C239.31,368.44 238.47,368.98 238.01,370.93 C237.70,372.26 236.96,373.51 236.37,373.71 C234.41,374.36 230.94,370.55 230.72,367.50 L 230.50 364.50 L 245.50 363.50 L 245.81 360.25 L 246.13 357.00 L 224.00 357.00 L 224.00 360.50 C224.00,363.91 223.90,364.00 220.05,364.00 C214.80,364.00 211.09,365.81 210.36,368.71 C209.57,371.86 212.47,375.00 216.15,375.00 C218.52,375.00 219.00,374.58 219.00,372.50 C219.00,370.33 219.44,370.00 222.38,370.00 C225.03,370.00 225.89,370.48 226.34,372.20 C226.66,373.41 226.46,374.95 225.90,375.63 C225.18,376.48 225.37,377.81 226.50,380.00 C227.77,382.45 227.87,383.46 226.94,384.57 ZM 180.57 167.12 C181.29,168.28 301.71,168.28 302.43,167.12 C303.96,164.63 283.48,158.90 266.00,156.92 C252.19,155.36 216.42,156.26 205.50,158.45 C190.78,161.41 179.47,165.34 180.57,167.12 ZM 190.51 243.32 L 189.77 271.00 L 184.00 271.00 L 184.00 236.57 C184.00,202.46 184.02,202.13 186.10,201.47 C187.26,201.10 188.62,201.22 189.12,201.72 C190.85,203.45 191.26,215.62 190.51,243.32 ZM 214.00 317.62 C214.00,318.56 212.80,318.98 210.25,318.93 C201.02,318.76 188.77,312.34 182.70,304.50 C174.63,294.07 173.36,290.95 177.25,291.07 C178.72,291.12 180.90,292.94 183.56,296.32 C189.60,304.04 199.05,310.53 210.75,315.00 C212.54,315.68 214.00,316.86 214.00,317.62 ZM 148.50 282.86 C154.87,286.04 156.96,285.71 154.96,281.86 C149.43,271.22 136.00,263.72 136.00,271.27 C136.00,274.42 141.16,279.20 148.50,282.86 ZM 343.00 284.65 C343.00,285.62 343.63,285.71 345.47,285.01 C355.10,281.35 363.36,274.59 362.83,270.81 C362.33,267.30 358.24,267.32 353.39,270.83 C349.34,273.77 343.00,282.20 343.00,284.65 ZM 245.02 218.21 C243.49,223.50 242.00,223.90 242.00,219.02 C242.00,216.76 241.02,213.03 239.83,210.71 C237.00,205.21 236.86,198.37 239.50,194.78 C240.60,193.29 241.73,192.05 242.00,192.03 C242.27,192.01 242.54,194.59 242.59,197.75 C242.64,200.91 243.45,205.98 244.39,209.00 C245.74,213.38 245.87,215.25 245.02,218.21 ZM 330.40 362.01 C330.30,366.65 330.47,367.00 332.71,367.00 C337.20,367.00 339.00,365.27 339.00,360.96 L 339.00 357.00 L 330.50 357.01 Z" fill="rgb(7,7,7)"/>
<path d="M 0.00 226.50 L 0.00 0.00 L 275.00 0.00 L 550.00 0.00 L 550.00 226.50 L 550.00 453.00 L 275.00 453.00 L 0.00 453.00 L 0.00 226.50 ZM 273.00 431.98 C295.83,430.27 318.55,425.36 336.25,418.31 C357.79,409.73 387.32,390.25 401.81,375.06 C404.73,372.00 409.50,367.02 412.42,364.00 C415.33,360.98 420.32,354.67 423.51,350.00 C426.70,345.33 430.08,340.60 431.03,339.50 C437.39,332.14 450.79,301.46 455.51,283.46 C464.96,247.40 463.82,212.23 452.03,176.00 C447.74,162.84 438.70,142.31 434.35,135.87 C432.73,133.47 428.53,127.28 425.03,122.12 C417.20,110.59 399.51,92.12 386.35,81.71 C370.96,69.55 348.21,56.54 333.71,51.62 C302.29,40.96 279.39,37.34 249.21,38.29 C224.12,39.07 206.62,42.17 182.00,50.20 C172.67,53.24 157.10,60.45 148.74,65.60 C131.72,76.09 125.96,80.17 118.55,87.00 C114.67,90.58 110.38,94.42 109.00,95.53 C106.64,97.43 102.47,101.91 93.71,111.92 C77.76,130.15 60.12,165.00 55.15,188.12 C47.65,222.99 48.13,254.80 56.68,288.50 C58.39,295.24 66.19,314.91 68.98,319.50 C69.98,321.15 72.50,325.88 74.58,330.00 C83.97,348.60 109.48,377.35 130.58,393.11 C145.66,404.37 173.38,419.10 184.82,421.93 C186.84,422.43 193.70,424.19 200.06,425.85 C206.42,427.50 216.99,429.56 223.56,430.43 C234.40,431.86 238.77,432.19 254.50,432.80 C257.25,432.91 265.58,432.54 273.00,431.98 ZM 241.00 425.92 C232.31,424.81 217.67,422.11 211.50,420.47 C198.10,416.93 171.59,404.90 159.43,396.86 C141.24,384.83 117.01,362.66 119.42,360.25 C119.76,359.90 122.40,361.87 125.27,364.63 C133.24,372.27 144.16,381.11 150.46,385.00 C153.57,386.92 157.15,389.17 158.40,390.00 C175.13,400.98 202.85,411.22 227.77,415.64 C239.85,417.78 269.95,418.04 281.00,416.10 C297.29,413.25 304.89,411.12 328.00,402.91 C337.09,399.68 346.05,394.52 369.42,379.09 C373.57,376.35 387.58,363.56 394.67,356.03 C396.99,353.57 399.17,351.83 399.51,352.17 C399.85,352.51 395.24,358.12 389.27,364.65 C379.33,375.51 362.20,390.48 352.61,396.69 C347.11,400.24 320.34,413.80 316.61,414.91 C314.90,415.42 311.02,416.79 308.00,417.94 C300.92,420.64 285.57,423.80 271.00,425.55 C258.33,427.08 250.82,427.17 241.00,425.92 ZM 246.00 412.35 C232.45,411.52 216.42,408.48 202.17,404.03 C198.50,402.88 193.93,401.45 192.00,400.86 C186.34,399.10 168.13,390.05 161.33,385.61 C157.87,383.35 152.96,380.20 150.42,378.61 C143.50,374.27 121.83,354.77 117.25,348.76 C115.05,345.87 112.04,342.15 110.56,340.50 C105.42,334.74 97.85,322.40 91.54,309.50 C81.46,288.90 77.53,276.19 75.47,257.50 C71.86,224.70 75.63,196.80 87.29,170.00 C89.56,164.77 92.68,158.43 94.21,155.89 C95.75,153.35 97.00,150.86 97.00,150.34 C97.00,148.28 106.08,134.90 114.19,125.00 C125.62,111.06 139.12,98.83 153.82,89.08 C168.89,79.09 177.08,74.95 192.95,69.32 C236.27,53.95 276.35,54.13 320.32,69.89 C329.97,73.35 343.61,80.02 351.61,85.19 C367.10,95.21 371.60,98.70 382.04,108.77 C388.34,114.86 394.85,121.69 396.50,123.96 C398.15,126.23 401.55,130.88 404.06,134.30 C415.58,149.96 420.02,158.95 428.65,184.06 C441.61,221.74 440.16,260.35 424.35,299.00 C417.79,315.03 416.25,317.72 399.18,342.78 C395.55,348.10 376.98,366.13 367.80,373.25 C352.30,385.26 327.15,399.20 315.00,402.50 C298.71,406.94 285.68,409.96 279.00,410.87 C270.02,412.08 253.62,412.82 246.00,412.35 ZM 276.50 388.00 C280.08,384.27 280.92,384.26 284.48,387.98 C286.72,390.32 287.64,390.72 288.72,389.82 C289.85,388.88 289.46,388.03 286.54,385.04 L 282.99 381.41 L 286.49 380.14 C288.88,379.27 290.00,378.24 290.00,376.90 C290.00,374.19 287.91,373.64 284.43,375.46 C280.42,377.55 278.57,377.39 275.40,374.67 C273.24,372.81 272.83,371.81 273.36,369.69 C274.05,366.95 275.50,366.27 282.00,365.63 C285.32,365.30 285.52,365.07 285.81,361.14 L 286.11 357.00 L 296.56 357.00 C304.74,357.00 307.00,357.30 307.00,358.37 C307.00,359.29 305.32,359.91 301.89,360.24 C294.37,360.96 292.64,365.36 297.89,370.39 C300.31,372.71 301.49,373.11 305.14,372.83 C309.02,372.54 309.54,372.75 309.82,374.76 C310.52,379.72 301.92,379.09 296.25,373.77 C294.55,372.17 293.69,371.91 292.84,372.76 C291.17,374.43 294.38,378.84 298.55,380.58 C303.17,382.51 309.90,382.40 312.17,380.35 C314.31,378.41 314.64,372.23 312.75,369.73 C311.91,368.63 309.68,367.98 306.00,367.79 C301.91,367.57 300.50,367.12 300.50,366.00 C300.50,364.89 301.91,364.42 305.98,364.19 C311.71,363.87 312.96,362.98 312.98,359.25 C313.00,357.17 313.45,357.00 318.98,357.00 C324.57,357.00 325.00,357.17 325.61,359.57 C326.40,362.72 324.91,364.40 321.24,364.46 C317.17,364.52 317.36,367.57 321.84,374.00 C326.31,380.40 330.24,383.16 332.17,381.23 C333.15,380.25 332.53,379.10 329.11,375.61 C324.35,370.76 324.83,369.31 330.68,370.92 C332.71,371.48 335.42,371.68 336.69,371.36 C338.90,370.81 339.00,371.03 339.00,376.39 C339.00,381.71 339.13,382.00 341.50,382.00 L 344.00 382.00 L 344.00 369.57 C344.00,357.46 344.06,357.13 346.24,356.82 C349.42,356.37 349.89,353.00 346.76,353.00 C343.58,353.00 341.25,351.08 340.47,347.83 C339.76,344.91 341.90,343.00 345.50,343.33 C346.62,343.43 347.57,342.77 347.79,341.75 C348.09,340.27 347.38,340.00 343.10,340.00 C338.82,340.00 337.80,340.38 336.42,342.48 C335.10,344.50 335.00,345.56 335.90,348.13 C336.50,349.87 337.00,351.69 337.00,352.17 C337.00,352.64 325.44,352.91 311.32,352.77 L 285.64 352.50 L 282.52 347.18 C278.81,340.86 277.68,340.04 272.75,340.02 C269.66,340.00 269.00,340.35 269.00,342.00 C269.00,343.45 269.67,344.00 271.42,344.00 C275.19,344.00 276.95,345.01 278.54,348.07 C280.92,352.67 280.52,353.00 272.59,353.00 C265.68,353.00 265.22,353.13 265.71,355.00 C266.17,356.77 267.07,357.00 273.62,357.00 C280.16,357.00 281.00,357.21 281.00,358.87 C281.00,360.31 280.03,360.87 276.76,361.31 C271.68,361.99 269.00,364.84 269.00,369.55 C269.00,374.40 270.61,377.87 273.48,379.17 C276.81,380.69 276.67,381.96 272.80,385.15 C270.02,387.43 269.76,388.01 270.91,389.40 C272.72,391.57 273.19,391.46 276.50,388.00 ZM 226.94 384.57 C227.87,383.46 227.77,382.45 226.50,380.00 C225.37,377.81 225.18,376.48 225.90,375.63 C226.46,374.95 226.66,373.41 226.34,372.20 C225.89,370.48 225.03,370.00 222.38,370.00 C219.44,370.00 219.00,370.33 219.00,372.50 C219.00,374.58 218.52,375.00 216.15,375.00 C212.47,375.00 209.57,371.86 210.36,368.71 C211.09,365.81 214.80,364.00 220.05,364.00 C223.90,364.00 224.00,363.91 224.00,360.50 L 224.00 357.00 L 235.06 357.00 L 246.13 357.00 L 245.81 360.25 L 245.50 363.50 L 238.00 364.00 L 230.50 364.50 L 230.72 367.50 C230.94,370.55 234.41,374.36 236.37,373.71 C236.96,373.51 237.70,372.26 238.01,370.93 C238.47,368.98 239.31,368.44 242.24,368.19 L 245.91 367.88 L 246.20 374.69 C246.47,380.73 246.72,381.50 248.50,381.50 C250.38,381.50 250.52,380.74 250.78,369.25 C251.04,357.83 251.19,357.00 253.03,357.00 C254.33,357.00 255.00,356.32 255.00,355.00 C255.00,353.03 254.33,353.00 208.43,353.00 C164.61,353.00 161.87,353.10 162.19,354.75 C162.47,356.23 163.87,356.54 171.32,356.79 L 180.12 357.08 L 179.81 360.29 L 179.50 363.50 L 172.30 363.79 C163.82,364.14 162.34,365.86 166.04,371.05 C168.56,374.60 171.16,374.57 172.00,370.99 C172.47,368.98 173.28,368.44 176.24,368.19 L 179.91 367.88 L 180.20 374.69 C180.47,380.73 180.72,381.50 182.50,381.50 C184.38,381.50 184.52,380.74 184.78,369.25 L 185.06 357.00 L 202.10 357.00 C217.79,357.00 219.12,357.14 218.81,358.75 C218.57,360.04 217.32,360.58 214.07,360.82 C211.64,360.99 208.73,361.78 207.60,362.57 C206.32,363.46 203.06,364.00 198.90,364.00 C191.21,364.00 189.26,365.28 191.04,369.19 C192.62,372.65 195.76,374.45 197.58,372.93 C198.36,372.29 199.00,370.88 199.00,369.81 C199.00,368.23 199.59,367.93 202.25,368.19 C204.91,368.44 205.55,368.97 205.80,371.11 C206.30,375.42 210.91,378.97 216.94,379.68 C221.59,380.23 222.33,380.64 223.20,383.15 C224.31,386.34 225.20,386.67 226.94,384.57 ZM 294.30 332.38 C302.90,330.44 311.42,326.53 319.23,320.95 C326.69,315.61 331.86,309.65 335.85,301.79 L 339.08 295.43 L 346.37 293.17 C354.70,290.59 361.85,286.12 367.26,280.13 C370.54,276.50 371.00,275.38 371.00,270.92 C371.00,261.65 364.03,257.75 353.91,261.37 C348.71,263.23 343.51,267.51 339.98,272.84 L 336.90 277.50 L 285.74 278.00 L 234.59 278.50 L 233.96 281.00 C233.62,282.38 233.50,283.98 233.71,284.58 C233.97,285.33 249.25,285.70 283.67,285.79 C310.95,285.87 333.45,286.12 333.68,286.34 C333.90,286.57 333.24,288.98 332.21,291.70 C328.18,302.30 316.10,315.14 305.42,320.17 C294.62,325.25 287.43,326.00 249.66,325.99 C213.06,325.98 206.69,325.42 195.65,321.21 C184.30,316.88 171.35,303.57 166.45,291.21 C165.52,288.85 165.07,286.60 165.46,286.21 C165.85,285.82 176.37,285.50 188.83,285.50 C210.29,285.50 211.72,285.38 215.62,283.29 C220.92,280.46 224.71,275.92 225.71,271.22 C226.14,269.17 226.49,258.14 226.48,246.69 L 226.45 225.88 L 234.37 234.19 C238.73,238.76 244.68,245.43 247.61,249.00 C250.53,252.57 256.51,259.33 260.90,264.00 C267.76,271.32 269.12,272.35 270.68,271.39 C271.68,270.78 272.78,268.98 273.13,267.39 C273.48,265.80 273.82,251.38 273.88,235.34 L 274.00 206.18 L 284.90 205.84 C296.81,205.47 300.00,204.10 300.00,199.35 L 300.00 197.00 L 277.63 197.00 C256.77,197.00 255.10,197.13 252.72,199.00 C248.96,201.97 248.40,207.25 251.04,214.89 C252.23,218.33 253.25,222.66 253.30,224.53 C253.37,227.16 253.68,227.68 254.67,226.86 C256.95,224.97 257.27,219.52 255.44,213.73 C253.02,206.05 253.71,204.82 260.24,205.20 L 265.50 205.50 L 265.77 230.25 C265.93,245.14 265.66,255.00 265.10,255.00 C264.58,255.00 257.98,247.91 250.42,239.25 C226.48,211.82 224.47,209.81 221.30,210.18 L 218.50 210.50 L 218.00 240.50 C217.63,262.87 217.16,271.09 216.17,272.83 C213.57,277.39 209.86,278.00 185.28,277.95 L 162.50 277.89 L 158.32 272.03 C153.37,265.08 146.82,260.85 140.14,260.30 C134.52,259.83 131.26,261.39 128.70,265.78 C125.57,271.13 126.99,275.36 134.34,282.57 C140.35,288.46 148.26,292.57 157.17,294.44 C159.22,294.87 160.24,296.07 161.63,299.70 C165.04,308.63 177.60,321.17 189.00,327.03 C191.48,328.30 196.88,330.36 201.00,331.60 C208.22,333.78 209.98,333.87 247.80,333.93 C280.60,333.99 288.30,333.73 294.30,332.38 ZM 214.00 317.62 C214.00,316.86 212.54,315.68 210.75,315.00 C199.05,310.53 189.60,304.04 183.56,296.32 C180.90,292.94 178.72,291.12 177.25,291.07 C173.36,290.95 174.63,294.07 182.70,304.50 C188.77,312.34 201.02,318.76 210.25,318.93 C212.80,318.98 214.00,318.56 214.00,317.62 ZM 176.00 231.02 L 176.00 191.03 L 205.14 190.77 C231.64,190.52 234.38,190.34 235.39,188.75 C236.19,187.47 236.19,186.53 235.39,185.25 C234.38,183.65 231.16,183.46 198.39,183.00 L 162.50 182.50 L 162.19 179.25 L 161.87 176.00 L 240.47 176.00 C312.31,176.00 319.12,176.14 319.69,177.64 C320.04,178.54 319.86,180.00 319.30,180.89 C318.41,182.30 314.35,182.56 287.00,183.00 C258.62,183.45 255.61,183.66 254.61,185.25 C253.81,186.53 253.81,187.47 254.61,188.75 C255.61,190.33 258.20,190.53 281.36,190.77 L 307.00 191.03 L 307.00 231.02 L 307.00 271.00 L 310.37 271.00 L 313.74 271.00 L 314.45 264.78 C314.83,261.35 315.03,251.34 314.89,242.53 L 314.63 226.50 L 322.21 225.96 C329.85,225.41 330.86,224.96 335.99,219.84 C340.55,215.30 344.51,214.70 374.00,214.08 C397.57,213.58 401.96,213.25 404.70,211.75 C408.74,209.54 412.80,204.27 413.62,200.17 L 414.25 197.00 L 364.74 197.00 L 315.23 197.00 L 314.66 194.79 C314.34,193.58 314.29,192.38 314.55,192.12 C314.80,191.86 337.17,191.62 364.26,191.58 L 413.50 191.50 L 413.15 189.01 C412.57,184.96 409.32,179.45 406.31,177.40 C403.76,175.68 400.81,175.45 374.50,174.95 C342.57,174.34 342.44,174.31 334.00,167.60 C329.68,164.16 329.18,164.02 321.38,164.01 C315.00,164.00 312.76,163.60 310.88,162.14 C302.98,155.96 281.63,150.50 260.00,149.11 L 250.50 148.50 L 250.19 144.25 C249.96,141.02 250.24,140.00 251.37,140.00 C256.01,140.00 257.91,129.91 254.00,126.00 C252.26,124.26 250.67,124.00 241.72,124.00 C228.26,124.00 226.79,124.89 227.20,132.84 C227.45,137.63 227.85,138.65 229.79,139.50 C231.72,140.34 232.04,141.14 231.79,144.50 L 231.50 148.50 L 222.50 149.15 C213.71,149.79 203.12,151.47 189.99,154.32 C180.90,156.28 173.33,160.33 170.84,164.55 C169.09,167.51 168.27,168.00 165.04,168.00 C155.00,168.00 150.56,180.71 158.00,188.15 C160.09,190.24 161.82,191.00 164.49,191.00 C167.99,191.00 168.12,191.12 167.81,194.25 L 167.50 197.50 L 147.40 198.00 C125.65,198.54 124.00,198.96 124.00,203.93 C124.00,209.02 125.84,210.13 136.06,211.20 C147.28,212.37 151.07,213.96 155.32,219.25 C158.74,223.51 162.67,226.00 165.95,226.00 C167.96,226.00 168.00,226.48 168.00,248.50 L 168.00 271.00 L 172.00 271.00 L 176.00 271.00 L 176.00 231.02 ZM 190.51 243.32 C191.26,215.62 190.85,203.45 189.12,201.72 C188.62,201.22 187.26,201.10 186.10,201.47 C184.02,202.13 184.00,202.46 184.00,236.57 L 184.00 271.00 L 186.89 271.00 L 189.77 271.00 L 190.51 243.32 ZM 245.02 218.21 C245.87,215.25 245.74,213.38 244.39,209.00 C243.45,205.98 242.64,200.91 242.59,197.75 C242.54,194.59 242.27,192.01 242.00,192.03 C241.73,192.05 240.60,193.29 239.50,194.78 C236.86,198.37 237.00,205.21 239.83,210.71 C241.02,213.03 242.00,216.76 242.00,219.02 C242.00,223.90 243.49,223.50 245.02,218.21 ZM 348.16 406.02 C348.39,405.32 350.57,403.64 353.00,402.27 C360.69,397.96 372.14,388.84 382.87,378.50 C405.17,357.00 418.36,337.35 430.18,308.00 C440.50,282.38 444.33,254.31 442.17,220.31 C441.01,201.97 440.50,198.28 437.37,185.15 C433.21,167.69 421.94,141.31 412.82,127.70 C397.83,105.29 378.09,85.12 358.66,72.33 C353.24,68.77 349.04,65.62 349.33,65.34 C349.95,64.72 368.53,74.91 373.76,78.74 C385.58,87.42 396.56,97.02 404.50,105.62 C413.39,115.25 421.00,124.32 421.00,125.28 C421.00,125.55 423.48,129.53 426.51,134.11 C434.89,146.76 440.56,158.48 445.44,173.17 C453.63,197.87 455.96,211.57 455.98,235.26 C456.00,253.59 454.55,265.74 450.45,281.50 C448.00,290.91 446.56,295.12 440.37,311.00 C437.69,317.89 424.95,339.97 422.47,342.02 C421.66,342.70 421.00,343.65 421.00,344.15 C421.00,347.22 396.12,374.15 385.71,382.36 C369.26,395.33 347.06,409.31 348.16,406.02 ZM 154.42 402.31 C144.04,397.23 122.01,380.11 109.60,367.50 C103.65,361.45 98.05,355.38 97.16,354.00 C96.27,352.62 92.24,347.02 88.21,341.55 C77.89,327.55 67.02,304.76 61.24,284.99 C55.74,266.20 54.70,256.65 55.32,230.61 C55.86,207.98 56.44,203.16 60.42,188.16 C65.53,168.90 76.38,145.36 87.16,130.13 C91.20,124.43 95.19,118.74 96.03,117.48 C101.49,109.30 124.28,88.02 135.71,80.41 C138.57,78.51 141.17,76.54 141.48,76.03 C142.28,74.73 160.10,65.76 160.69,66.36 C160.96,66.63 159.23,68.08 156.84,69.59 C147.66,75.37 145.16,77.27 134.17,86.74 C122.87,96.48 111.73,108.61 102.75,120.93 C100.14,124.51 98.00,127.96 98.00,128.59 C98.00,129.22 97.12,130.85 96.04,132.22 C93.23,135.79 81.66,159.41 79.20,166.58 C70.80,191.12 66.87,223.47 68.97,250.67 C70.53,270.72 74.57,291.28 79.89,306.14 C83.52,316.29 93.93,336.17 101.54,347.51 C106.97,355.60 123.37,374.80 128.00,378.50 C129.37,379.60 133.88,383.46 138.00,387.09 C144.47,392.76 153.90,399.68 160.59,403.63 C161.64,404.26 162.27,404.99 162.00,405.27 C161.73,405.55 158.31,404.22 154.42,402.31 ZM 383.97 103.41 C379.86,99.24 374.41,94.40 371.86,92.66 C369.31,90.92 363.07,86.64 358.00,83.15 C343.37,73.07 319.94,62.83 300.83,58.15 C285.05,54.29 273.65,53.00 255.26,53.00 C227.22,53.01 202.62,58.13 180.19,68.64 C175.07,71.04 170.43,73.00 169.88,73.00 C168.49,73.00 148.17,85.99 140.71,91.66 C137.30,94.26 131.01,99.49 126.75,103.30 C114.94,113.83 117.51,109.58 130.25,97.51 C147.71,80.95 159.34,72.83 181.00,62.06 C194.09,55.55 199.61,53.50 213.50,49.98 C245.54,41.87 266.43,41.97 299.18,50.42 C315.41,54.61 323.16,57.77 340.29,67.17 C352.90,74.10 360.09,79.05 371.79,88.87 C377.55,93.70 392.30,108.56 392.83,110.07 C393.71,112.53 390.80,110.34 383.97,103.41 ZM 330.40 362.01 L 330.50 357.01 L 334.75 357.01 L 339.00 357.00 L 339.00 360.96 C339.00,365.27 337.20,367.00 332.71,367.00 C330.47,367.00 330.30,366.65 330.40,362.01 ZM 148.50 282.86 C141.16,279.20 136.00,274.42 136.00,271.27 C136.00,263.72 149.43,271.22 154.96,281.86 C156.96,285.71 154.87,286.04 148.50,282.86 ZM 343.00 284.65 C343.00,282.20 349.34,273.77 353.39,270.83 C358.24,267.32 362.33,267.30 362.83,270.81 C363.36,274.59 355.10,281.35 345.47,285.01 C343.63,285.71 343.00,285.62 343.00,284.65 ZM 180.57 167.12 C179.47,165.34 190.78,161.41 205.50,158.45 C216.42,156.26 252.19,155.36 266.00,156.92 C283.48,158.90 303.96,164.63 302.43,167.12 C301.71,168.28 181.29,168.28 180.57,167.12 Z" fill="rgb(254,254,254)"/>
</g>
</svg>